<svg width="80" height="80" viewBox="0 0 80 80" fill="none" xmlns="http://www.w3.org/2000/svg">
<path d="M40 6.66675C21.62 6.66675 6.66669 21.6201 6.66669 40.0001C6.66669 58.3801 21.62 73.3334 40 73.3334C58.38 73.3334 73.3334 58.3801 73.3334 40.0001C73.3334 21.6201 58.38 6.66675 40 6.66675ZM40 66.6668C25.2967 66.6668 13.3334 54.7034 13.3334 40.0001C13.3334 25.2967 25.2967 13.3334 40 13.3334C54.7034 13.3334 66.6667 25.2967 66.6667 40.0001C66.6667 54.7034 54.7034 66.6668 40 66.6668Z" fill="#115282"/>
<path d="M43.3334 23.3333H36.6667V43.3333H56.6667V36.6666H43.3334V23.3333Z" fill="#115282"/>
</svg>
