<svg width="80" height="81" viewBox="0 0 80 81" fill="none" xmlns="http://www.w3.org/2000/svg">
<path fill-rule="evenodd" clip-rule="evenodd" d="M59.7848 20.4936C59.7848 8.08839 51.1966 0 42.154 0C33.0962 0 24.6998 8.00761 24.6998 20.4936H24.6948C24.7301 28.8647 32.5812 44.7234 42.2448 44.7234C51.9035 44.7234 59.7343 28.8647 59.7848 20.4936Z" fill="white"/>
<path fill-rule="evenodd" clip-rule="evenodd" d="M67.5696 55.4299C64.2732 55.4286 61.1112 56.7361 58.7784 59.0651C56.4456 61.3941 55.133 64.554 55.129 67.8503C55.129 71.1484 56.4391 74.3114 58.7713 76.6436C61.1034 78.9757 64.2664 80.2858 67.5645 80.2858C70.8626 80.2858 74.0256 78.9757 76.3577 76.6436C78.6899 74.3114 80 71.1484 80 67.8503C79.9974 64.5553 78.6865 61.3961 76.3557 59.0672C74.0248 56.7382 70.8646 55.4299 67.5696 55.4299ZM70.2758 70.4808V75.4187H64.9593V70.4808H59.769V65.2653H64.9593V60.085H70.2758V65.2653H75.2692V70.4808H70.2758Z" fill="white"/>
<path fill-rule="evenodd" clip-rule="evenodd" d="M46.8642 65.3346C46.8642 59.0689 49.6159 53.4494 53.963 49.6375C56.2906 47.5876 56.1542 47.7694 54.1246 48.7539C48.2779 51.5914 40.3612 52.4195 40.3612 52.4195C40.3612 52.4195 25.6789 50.9704 21.3519 45.1541C0.626066 45.1541 0 75.2659 0 75.2659H49.3533C47.7171 72.2115 46.862 68.7997 46.8642 65.3346Z" fill="white"/>
</svg>
