<svg width="100" height="100" viewBox="0 0 100 100" fill="none" xmlns="http://www.w3.org/2000/svg">
<path d="M91.666 70.5V83C91.6707 84.1604 91.433 85.309 90.9681 86.3722C90.5032 87.4355 89.8214 88.3899 88.9663 89.1744C88.1112 89.9589 87.1017 90.5561 86.0024 90.9279C84.9032 91.2997 83.7384 91.4377 82.5826 91.3333C69.7611 89.9401 57.4451 85.5589 46.6243 78.5416C36.5569 72.1444 28.0215 63.609 21.6243 53.5416C14.5826 42.6716 10.2003 30.2958 8.83265 17.4166C8.72852 16.2644 8.86546 15.1031 9.23473 14.0067C9.60401 12.9103 10.1975 11.9028 10.9775 11.0484C11.7575 10.1939 12.7068 9.51125 13.7651 9.0438C14.8234 8.57635 15.9674 8.33438 17.1243 8.33329H29.6243C31.6464 8.31339 33.6068 9.02945 35.14 10.348C36.6732 11.6666 37.6746 13.4977 37.9576 15.5C38.4852 19.5002 39.4637 23.428 40.8743 27.2083C41.4349 28.6996 41.5562 30.3204 41.2239 31.8786C40.8916 33.4368 40.1196 34.8671 38.9993 36L33.7076 41.2916C39.6391 51.7231 48.2762 60.3601 58.7076 66.2916L63.9993 61C65.1322 59.8797 66.5625 59.1077 68.1206 58.7753C69.6788 58.443 71.2996 58.5644 72.791 59.125C76.5713 60.5356 80.499 61.514 84.4993 62.0416C86.5233 62.3272 88.3718 63.3466 89.6932 64.9062C91.0146 66.4657 91.7167 68.4565 91.666 70.5Z" stroke="#115282" stroke-width="4" stroke-linecap="round" stroke-linejoin="round"/>
</svg>
