<svg width="100" height="100" viewBox="0 0 100 100" fill="none" xmlns="http://www.w3.org/2000/svg">
<path d="M87.5 41.6666C87.5 70.8333 50 95.8333 50 95.8333C50 95.8333 12.5 70.8333 12.5 41.6666C12.5 31.721 16.4509 22.1827 23.4835 15.1501C30.5161 8.11751 40.0544 4.16663 50 4.16663C59.9456 4.16663 69.4839 8.11751 76.5165 15.1501C83.5491 22.1827 87.5 31.721 87.5 41.6666Z" stroke="#115282" stroke-width="4" stroke-linecap="round" stroke-linejoin="round"/>
<path d="M50 54.1666C56.9036 54.1666 62.5 48.5702 62.5 41.6666C62.5 34.7631 56.9036 29.1666 50 29.1666C43.0964 29.1666 37.5 34.7631 37.5 41.6666C37.5 48.5702 43.0964 54.1666 50 54.1666Z" fill="white" stroke="#115282" stroke-width="4" stroke-linecap="round" stroke-linejoin="round"/>
</svg>
