<svg width="100" height="100" viewBox="0 0 100 100" fill="none" xmlns="http://www.w3.org/2000/svg">
<path d="M58.3337 8.3335H25.0003C22.7902 8.3335 20.6706 9.21147 19.1078 10.7743C17.545 12.3371 16.667 14.4567 16.667 16.6668V83.3335C16.667 85.5436 17.545 87.6633 19.1078 89.2261C20.6706 90.7889 22.7902 91.6668 25.0003 91.6668H75.0003C77.2105 91.6668 79.3301 90.7889 80.8929 89.2261C82.4557 87.6633 83.3336 85.5436 83.3336 83.3335V33.3335L58.3337 8.3335Z" stroke="white" stroke-width="4" stroke-linecap="round" stroke-linejoin="round"/>
<path d="M58.333 8.3335V33.3335H83.333" stroke="white" stroke-width="4" stroke-linecap="round" stroke-linejoin="round"/>
<path d="M66.6663 54.1665H33.333" stroke="white" stroke-width="4" stroke-linecap="round" stroke-linejoin="round"/>
<path d="M66.6663 70.8335H33.333" stroke="white" stroke-width="4" stroke-linecap="round" stroke-linejoin="round"/>
<path d="M41.6663 37.5H37.4997H33.333" stroke="white" stroke-width="4" stroke-linecap="round" stroke-linejoin="round"/>
</svg>
