<svg width="80" height="80" viewBox="0 0 80 80" fill="none" xmlns="http://www.w3.org/2000/svg">
<path d="M78.5156 78.5156C77.526 79.5052 76.3411 80 74.9609 80C73.5807 80 72.3958 79.5052 71.4062 78.5156L55.9375 63.0469C49.6875 67.6823 42.7083 70 35 70C30.2604 70 25.7292 69.0755 21.4062 67.2266C17.0833 65.3776 13.3594 62.8906 10.2344 59.7656C7.10938 56.6406 4.6224 52.9167 2.77344 48.5938C0.924479 44.2708 0 39.7396 0 35C0 30.2604 0.924479 25.7292 2.77344 21.4062C4.6224 17.0833 7.10938 13.3594 10.2344 10.2344C13.3594 7.10938 17.0833 4.6224 21.4062 2.77344C25.7292 0.924479 30.2604 0 35 0C39.7396 0 44.2708 0.924479 48.5938 2.77344C52.9167 4.6224 56.6406 7.10938 59.7656 10.2344C62.8906 13.3594 65.3776 17.0833 67.2266 21.4062C69.0755 25.7292 70 30.2604 70 35C70 42.7083 67.6823 49.6875 63.0469 55.9375L78.5156 71.4062C79.5052 72.3958 80 73.5807 80 74.9609C80 76.3411 79.5052 77.526 78.5156 78.5156ZM35 10C30.4688 10 26.2891 11.1198 22.4609 13.3594C18.6328 15.599 15.599 18.6328 13.3594 22.4609C11.1198 26.2891 10 30.4688 10 35C10 41.3021 12.1094 46.8229 16.3281 51.5625C19.2448 49.8438 22.9688 48.6458 27.5 47.9688V45.5469C22.5 42.526 20 36.276 20 26.7969C20 22.9427 21.4062 20.013 24.2188 18.0078C27.0312 16.0026 30.638 15 35.0391 15C39.4401 15 43.0339 16.0026 45.8203 18.0078C48.6068 20.013 50 22.9427 50 26.7969C50 36.6927 47.5 43.0208 42.5 45.7812V47.9688C47.0312 48.5938 50.7812 49.7917 53.75 51.5625C57.9167 46.8229 60 41.3021 60 35C60 30.4688 58.8802 26.2891 56.6406 22.4609C54.401 18.6328 51.3672 15.599 47.5391 13.3594C43.7109 11.1198 39.5312 10 35 10Z" fill="white"/>
</svg>
