<svg width="80" height="80" viewBox="0 0 80 80" fill="none" xmlns="http://www.w3.org/2000/svg">
<path d="M47.3158 64.4629L27.9858 53.2991L29.9008 49.9854L49.227 61.1491L47.3158 64.4629Z" fill="#115282"/>
<path d="M67.0392 70.8222C72.6217 65.5497 76.1592 58.1422 76.1592 49.8747C76.1592 39.6884 70.8092 30.5009 62.4904 25.3409L71.8104 9.20843L70.3467 8.36468L72.6454 4.36718L66.6192 0.888428L64.3154 4.87968L62.7742 3.98968L39.8617 43.6797L41.8629 44.8347L39.0217 49.7497L44.0567 52.6572L46.8992 47.7397L48.8979 48.8947L58.5329 32.2084C61.5034 34.1017 63.9491 36.7127 65.6442 39.8005C67.3393 42.8883 68.2291 46.3534 68.2317 49.8759C68.2317 61.4259 58.8292 70.8234 47.2779 70.8234H30.3954V78.7547H77.9179V70.8234H67.0417L67.0392 70.8222Z" fill="#115282"/>
<path d="M24.8537 9.83262V3.53637H25.6287L25.6175 2.02637H18.5562L18.5675 3.53637H19.4V9.83262H14.1313V3.53637H14.9038L14.895 2.02637H7.8275L7.84125 3.53637H8.67375V9.83262H0.9375V41.3714H32.5237V9.83262H24.8563H24.8537ZM29.8487 38.7014H3.60875V12.5026H8.6725V32.6526C8.6725 34.1776 9.91875 35.4164 11.4225 35.4164C12.9287 35.4101 14.13 34.1751 14.13 32.6526V12.5026H19.3988V32.6526C19.3988 34.1776 20.6462 35.4164 22.15 35.4164C23.6562 35.4101 24.8575 34.1751 24.855 32.6526V12.5026H29.8487V38.7014Z" fill="#115282"/>
</svg>
