<svg width="100" height="100" viewBox="0 0 100 100" fill="none" xmlns="http://www.w3.org/2000/svg">
<path d="M91.666 70.5001V83.0001C91.6707 84.1605 91.433 85.3091 90.9681 86.3724C90.5032 87.4356 89.8214 88.39 88.9663 89.1745C88.1112 89.959 87.1017 90.5563 86.0024 90.928C84.9032 91.2998 83.7384 91.4379 82.5826 91.3334C69.7611 89.9402 57.4451 85.559 46.6243 78.5417C36.5569 72.1445 28.0215 63.6091 21.6243 53.5417C14.5826 42.6718 10.2003 30.2959 8.83265 17.4167C8.72852 16.2645 8.86546 15.1032 9.23473 14.0068C9.60401 12.9104 10.1975 11.9029 10.9775 11.0485C11.7575 10.194 12.7068 9.51137 13.7651 9.04392C14.8234 8.57647 15.9674 8.3345 17.1243 8.33341H29.6243C31.6464 8.31351 33.6068 9.02957 35.14 10.3481C36.6732 11.6667 37.6746 13.4978 37.9576 15.5001C38.4852 19.5004 39.4637 23.4281 40.8743 27.2084C41.4349 28.6998 41.5562 30.3206 41.2239 31.8787C40.8916 33.4369 40.1196 34.8672 38.9993 36.0001L33.7076 41.2917C39.6391 51.7232 48.2762 60.3603 58.7076 66.2917L63.9993 61.0001C65.1322 59.8798 66.5625 59.1078 68.1206 58.7755C69.6788 58.4431 71.2996 58.5645 72.791 59.1251C76.5713 60.5357 80.499 61.5141 84.4993 62.0417C86.5233 62.3273 88.3718 63.3468 89.6932 64.9063C91.0146 66.4658 91.7167 68.4566 91.666 70.5001Z" stroke="white" stroke-width="4" stroke-linecap="round" stroke-linejoin="round"/>
</svg>
