<svg width="80" height="77" viewBox="0 0 80 77" fill="none" xmlns="http://www.w3.org/2000/svg">
<path d="M40 57.5935L44 49.9924V30.4498C50.884 28.751 56 22.8487 56 15.7872C56 7.40318 48.824 0.584961 40 0.584961C31.176 0.584961 24 7.40318 24 15.7872C24 22.8487 29.116 28.751 36 30.4498V49.9924L40 57.5935ZM32 15.7872C32 11.5952 35.588 8.1861 40 8.1861C44.412 8.1861 48 11.5952 48 15.7872C48 19.9793 44.412 23.3884 40 23.3884C35.588 23.3884 32 19.9793 32 15.7872Z" fill="white"/>
<path d="M57.068 33.1293L54.936 40.4568C65.3 43.178 72 48.4114 72 53.793C72 60.9837 58.86 68.9953 40 68.9953C21.14 68.9953 8 60.9837 8 53.793C8 48.4114 14.7 43.178 25.068 40.453L22.936 33.1255C8.788 36.8424 0 44.759 0 53.793C0 66.5781 17.572 76.5964 40 76.5964C62.428 76.5964 80 66.5781 80 53.793C80 44.759 71.212 36.8424 57.068 33.1293Z" fill="white"/>
</svg>
